<?xml version="1.0" encoding="iso-8859-1"?>
<!-- Generator: Adobe Illustrator 16.0.0, SVG Export Plug-In . SVG Version: 6.00 Build 0)  -->
<!DOCTYPE svg PUBLIC "-//W3C//DTD SVG 1.1//EN" "http://www.w3.org/Graphics/SVG/1.1/DTD/svg11.dtd">
<svg version="1.1" id="Capa_1" xmlns="http://www.w3.org/2000/svg" xmlns:xlink="http://www.w3.org/1999/xlink" x="0px" y="0px"
	 width="612px" height="612px" viewBox="0 0 612 612" style="enable-background:new 0 0 612 612;" xml:space="preserve">
<g>
	<path d="M565.861,233.266H338.424V32.934C338.424,14.753,323.668,0,305.49,0H46.139C27.96,0,13.207,14.753,13.207,32.934v546.133
		C13.207,597.245,27.96,612,46.141,612h259.35c0.181,0,0.347-0.049,0.51-0.049c0.182,0,0.328,0.049,0.51,0.049h259.35
		c18.179,0,32.934-14.753,32.934-32.934V266.2C598.793,248.005,584.056,233.266,565.861,233.266z M272.556,546.133H79.072V65.868
		h193.484V546.133z M532.928,546.133H339.443v-247h193.484V546.133z M362.431,399.3v-46.651c0-4.545,3.688-8.233,8.233-8.233h46.65
		c4.545,0,8.233,3.688,8.233,8.233V399.3c0,4.545-3.688,8.233-8.233,8.233h-46.65C366.103,407.533,362.431,403.845,362.431,399.3z
		 M446.84,399.3v-46.651c0-4.545,3.688-8.233,8.233-8.233h46.65c4.545,0,8.233,3.688,8.233,8.233V399.3
		c0,4.545-3.688,8.233-8.233,8.233h-46.65C450.512,407.533,446.84,403.845,446.84,399.3z M362.431,492.617v-46.65
		c0-4.546,3.688-8.233,8.233-8.233h46.65c4.545,0,8.233,3.688,8.233,8.233v46.65c0,4.545-3.688,8.233-8.233,8.233h-46.65
		C366.103,500.851,362.431,497.162,362.431,492.617z M446.84,492.617v-46.65c0-4.546,3.688-8.233,8.233-8.233h46.65
		c4.545,0,8.233,3.688,8.233,8.233v46.65c0,4.545-3.688,8.233-8.233,8.233h-46.65C450.512,500.851,446.84,497.162,446.84,492.617z
		 M102.045,399.3v-46.651c0-4.545,3.688-8.233,8.233-8.233h46.651c4.545,0,8.233,3.688,8.233,8.233V399.3
		c0,4.545-3.688,8.233-8.233,8.233h-46.653C105.733,407.533,102.045,403.845,102.045,399.3z M186.452,399.3v-46.651
		c0-4.545,3.688-8.233,8.233-8.233h46.65c4.545,0,8.233,3.688,8.233,8.233V399.3c0,4.545-3.688,8.233-8.233,8.233h-46.65
		C190.14,407.533,186.452,403.845,186.452,399.3z M102.045,492.617v-46.65c0-4.546,3.688-8.233,8.233-8.233h46.651
		c4.545,0,8.233,3.688,8.233,8.233v46.65c0,4.545-3.688,8.233-8.233,8.233h-46.653C105.733,500.851,102.045,497.162,102.045,492.617
		z M186.452,492.617v-46.65c0-4.546,3.688-8.233,8.233-8.233h46.65c4.545,0,8.233,3.688,8.233,8.233v46.65
		c0,4.545-3.688,8.233-8.233,8.233h-46.65C190.14,500.851,186.452,497.162,186.452,492.617z M102.045,157.8v-46.651
		c0-4.545,3.688-8.233,8.233-8.233h46.651c4.545,0,8.233,3.688,8.233,8.233V157.8c0,4.545-3.688,8.233-8.233,8.233h-46.653
		C105.733,166.034,102.045,162.345,102.045,157.8z M186.452,157.8v-46.651c0-4.545,3.688-8.233,8.233-8.233h46.65
		c4.545,0,8.233,3.688,8.233,8.233V157.8c0,4.545-3.688,8.233-8.233,8.233h-46.65C190.14,166.034,186.452,162.345,186.452,157.8z
		 M102.045,251.116v-46.651c0-4.545,3.688-8.233,8.233-8.233h46.651c4.545,0,8.233,3.688,8.233,8.233v46.651
		c0,4.545-3.688,8.233-8.233,8.233h-46.653C105.733,259.349,102.045,255.661,102.045,251.116z M186.452,251.116v-46.651
		c0-4.545,3.688-8.233,8.233-8.233h46.65c4.545,0,8.233,3.688,8.233,8.233v46.651c0,4.545-3.688,8.233-8.233,8.233h-46.65
		C190.14,259.349,186.452,255.661,186.452,251.116z"/>
</g>
<g>
</g>
<g>
</g>
<g>
</g>
<g>
</g>
<g>
</g>
<g>
</g>
<g>
</g>
<g>
</g>
<g>
</g>
<g>
</g>
<g>
</g>
<g>
</g>
<g>
</g>
<g>
</g>
<g>
</g>
</svg>
